<svg id="Слой_1" data-name="Слой 1" xmlns="http://www.w3.org/2000/svg" viewBox="0 0 1080 1080">
  <defs>
    <style>
      .cls-1 {
        fill: #fff;
      }
    </style>
  </defs>
  <g>
    <g>
      <path class="cls-1" d="M459,598.56a87,87,0,0,1-24.36-3.39q-11.7-3.4-18.79-8.83l8.3-18.41a57.88,57.88,0,0,0,16,7.92A59.47,59.47,0,0,0,459,579a37.21,37.21,0,0,0,11.7-1.51,14.58,14.58,0,0,0,6.56-4,8.68,8.68,0,0,0,2.11-5.81,7.94,7.94,0,0,0-3.32-6.71,27,27,0,0,0-8.82-4.07c-3.68-1.06-7.67-2.07-12-3s-8.67-2.12-13.05-3.47a52.9,52.9,0,0,1-12.07-5.43,25.56,25.56,0,0,1-8.75-8.91q-3.24-5.5-3.24-13.8A29.78,29.78,0,0,1,423,505.7q4.82-7.47,14.71-11.92t24.82-4.45a81.87,81.87,0,0,1,19.68,2.41,58.56,58.56,0,0,1,17,6.94l-7.7,18.41A61.38,61.38,0,0,0,476.81,511a55.48,55.48,0,0,0-14.49-2,34.77,34.77,0,0,0-11.61,1.59,13.38,13.38,0,0,0-6.41,4.3,9.8,9.8,0,0,0-2,6,8.14,8.14,0,0,0,3.32,6.79,24.43,24.43,0,0,0,8.75,4q5.43,1.44,12.07,2.87a131,131,0,0,1,13.12,3.54,58.55,58.55,0,0,1,11.92,5.36,25.76,25.76,0,0,1,8.83,8.75q3.39,5.51,3.39,13.65a28.86,28.86,0,0,1-4.9,16.3q-4.9,7.38-14.86,11.91T459,598.56Z"/>
      <path class="cls-1" d="M545.9,596.75,511.2,491.14h25.35l30,93.54H553.9l31.38-93.54h22.63l30.18,93.54H625.87l30.78-93.54H680l-34.7,105.61h-26l-26.85-82.07h6.94L572,596.75Z"/>
      <path class="cls-1" d="M676.26,596.75l46.92-105.61h24.14l47.37,105.61H769.05l-38.78-93.24h9.81L701.3,596.75ZM700,574.12l6.18-18.56h54.62l6.33,18.56Z"/>
      <path class="cls-1" d="M805.71,596.75V491.14h45.71q14.18,0,24.44,4.6a35.81,35.81,0,0,1,15.84,13.2q5.58,8.61,5.59,20.37,0,11.93-5.59,20.44A36.42,36.42,0,0,1,875.86,563q-10.26,4.66-24.44,4.67H819.13l11.17-11v40.13Zm24.59-37.42-11.17-11.61h30.93q11.18,0,16.9-4.83t5.73-13.58q0-8.74-5.73-13.5t-16.9-4.76H819.13l11.17-11.61Z"/>
    </g>
    <g>
      <polygon class="cls-1" points="293.62 550.13 293.54 550.18 293.62 550.22 293.62 555.11 289.45 557.51 289.4 557.55 289.28 557.47 289.28 557.62 288.12 558.3 285.32 559.92 285.19 559.98 275.3 565.7 265.2 559.87 262.39 558.25 261.11 557.51 261.11 557.5 261.02 557.45 256.96 555.11 256.96 533.96 266.93 528.2 266.95 528.19 269.71 526.6 271 525.84 271.01 525.84 271.04 525.82 275.3 523.37 279.4 525.75 279.44 525.77 279.44 525.81 279.47 525.79 280.71 526.49 283.52 528.12 283.56 528.14 293.62 533.96 293.62 550.13"/>
      <path class="cls-1" d="M357.89,574.57V535.21l.08-.05V496.67l-33.33-19.23,0,0L313.1,484.1l-21.94,12.67-5.85,3.4-1.63-.94L279,496.51l-3.67-2.11-3.78,2.17-4.88,2.81-1.46.85L260.36,503l-6.67,3.86-6.34,3.65-15.48,8.94v25.19L226,541.27l-22.1-12.76V503.32l21.81-12.59h0l22.09,12.76,3-1.71,7.58-4.37,1-.57-22.08-12.76,6.33-3.65,22.13-12.77h0a15.39,15.39,0,0,0,18.89,0h0l22.16,12.78,11.51-6.63-27.84-16.08h0a17.09,17.09,0,0,0,.18-2.27,15.44,15.44,0,1,0-30.88,0,17.09,17.09,0,0,0,.18,2.27l0,0-27.81,16.05-6.33,3.65h0L192.4,496.67v38.49l11.51,6.64L226,554.55l5.86,3.39v11.67l3.62,2.08,4.77,2.76,1.56.9,4.8,2.77,6.71,3.87,6.33,3.66,15.64,9,15.34-8.86,6.32-3.64v31.94l-21.81,12.6-21.82-12.6V588.76l-3-1.72-7.6-4.38-.94-.54v25.35l-6.33-3.66-22-12.71,0,0a14.22,14.22,0,0,0,.17-2.17,15.44,15.44,0,0,0-9.69-14.33V549.11l-11.51-6.64v32.11a15.44,15.44,0,1,0,15.28,26.47h0l27.79,16.05,6.33,3.65h0L275.15,640l33.32-19.23V575.53l6.33-3.66,3.82-2.22.09,0V519.46l-15.57-9-6.35-3.64,5.87-3.4,21.94-12.67,21.79,12.57v25.24l-21.82,12.58v13.3l21.82-12.59v32.66a15.44,15.44,0,0,0-9.77,14.35,15.06,15.06,0,0,0,.19,2.25l0,0-22,12.69v13.29l27.8-16.05h0a15.43,15.43,0,1,0,15.28-26.48Zm-50.38-48.63v37.19l-7.32,4.24-2.34,1.35-22.55,13-22.69-13.09-2.41-1.42-7.14-4.1V525.94l22.41-13,2.3-1.32,7.53-4.33,7.22,4.17,2.31,1.29Z"/>
    </g>
  </g>
</svg>
